<?xml version="1.0" encoding="UTF-8" standalone="no"?>
<svg
   xmlns:dc="http://purl.org/dc/elements/1.1/"
   xmlns:cc="http://creativecommons.org/ns#"
   xmlns:rdf="http://www.w3.org/1999/02/22-rdf-syntax-ns#"
   xmlns:svg="http://www.w3.org/2000/svg"
   xmlns="http://www.w3.org/2000/svg"
   xmlns:sodipodi="http://sodipodi.sourceforge.net/DTD/sodipodi-0.dtd"
   xmlns:inkscape="http://www.inkscape.org/namespaces/inkscape"
   width="384"
   height="384"
   viewBox="0 0 101.6 101.6"
   version="1.1"
   id="svg8"
   inkscape:version="1.0.1 (3bc2e813f5, 2020-09-07)"
   sodipodi:docname="dirt.svg">
  <defs
     id="defs2" />
  <sodipodi:namedview
     id="base"
     pagecolor="#ffffff"
     bordercolor="#666666"
     borderopacity="1.0"
     inkscape:pageopacity="0.0"
     inkscape:pageshadow="2"
     inkscape:zoom="2.9306859"
     inkscape:cx="189.38427"
     inkscape:cy="197.87569"
     inkscape:document-units="mm"
     inkscape:current-layer="layer1"
     inkscape:document-rotation="0"
     showgrid="false"
     units="px"
     inkscape:window-width="2560"
     inkscape:window-height="1377"
     inkscape:window-x="1912"
     inkscape:window-y="-8"
     inkscape:window-maximized="1" />
  <metadata
     id="metadata5">
    <rdf:RDF>
      <cc:Work
         rdf:about="">
        <dc:format>image/svg+xml</dc:format>
        <dc:type
           rdf:resource="http://purl.org/dc/dcmitype/StillImage" />
        <dc:title></dc:title>
      </cc:Work>
    </rdf:RDF>
  </metadata>
  <g
     inkscape:label="Calque 1"
     inkscape:groupmode="layer"
     id="layer1">
    <rect
       style="fill:#dbdbdb;fill-opacity:1;stroke:none;stroke-width:0.264583;stroke-linecap:round;stroke-linejoin:round;stroke-miterlimit:4;stroke-dasharray:none"
       id="rect998"
       width="101.6"
       height="101.6"
       x="0"
       y="0" />
    <path
       style="fill:#fbfbfb;stroke:none;stroke-width:0.264583;stroke-linecap:butt;stroke-linejoin:miter;stroke-miterlimit:4;stroke-dasharray:none;stroke-opacity:1;fill-opacity:1"
       d="m 32.17652,58.387107 7.356001,-7.723801 7.601201,6.13 0.735598,8.949801 -8.7046,3.677999 -5.762199,-1.716398 z"
       id="path833" />
    <path
       style="fill:#fbfbfb;stroke:none;stroke-width:0.264583;stroke-linecap:butt;stroke-linejoin:miter;stroke-miterlimit:4;stroke-dasharray:none;stroke-opacity:1;fill-opacity:1"
       d="m 66.043187,58.387107 7.356001,-7.723801 7.601201,6.13 0.735598,8.949801 -8.7046,3.677999 -5.762199,-1.716398 z"
       id="path852" />
    <path
       style="fill:#fbfbfb;stroke:none;stroke-width:0.264583;stroke-linecap:butt;stroke-linejoin:miter;stroke-miterlimit:4;stroke-dasharray:none;stroke-opacity:1;fill-opacity:1"
       d="m -1.6901466,58.387107 7.3560003,-7.723801 7.6012013,6.13 0.735598,8.949801 -8.7046003,3.677999 -5.76219834,-1.716398 z"
       id="path854" />
    <path
       style="fill:#fbfbfb;stroke:none;stroke-width:0.264583;stroke-linecap:butt;stroke-linejoin:miter;stroke-miterlimit:4;stroke-dasharray:none;stroke-opacity:1;fill-opacity:1"
       d="m -1.6901466,24.52044 7.3560003,-7.723801 7.6012013,6.13 0.735598,8.949801 -8.7046003,3.677999 -5.76219834,-1.716398 z"
       id="path856" />
    <path
       style="fill:#fbfbfb;stroke:none;stroke-width:0.264583;stroke-linecap:butt;stroke-linejoin:miter;stroke-miterlimit:4;stroke-dasharray:none;stroke-opacity:1;fill-opacity:1"
       d="m 32.17652,24.52044 7.356001,-7.723801 7.601201,6.13 0.735598,8.949801 -8.7046,3.677999 -5.762199,-1.716398 z"
       id="path858" />
    <path
       style="fill:#fbfbfb;stroke:none;stroke-width:0.264583;stroke-linecap:butt;stroke-linejoin:miter;stroke-miterlimit:4;stroke-dasharray:none;stroke-opacity:1;fill-opacity:1"
       d="m 66.043187,24.52044 7.356001,-7.723801 7.601201,6.13 0.735598,8.949801 -8.7046,3.677999 -5.762199,-1.716398 z"
       id="path860" />
    <path
       style="fill:#fbfbfb;stroke:none;stroke-width:0.264583;stroke-linecap:butt;stroke-linejoin:miter;stroke-miterlimit:4;stroke-dasharray:none;stroke-opacity:1;fill-opacity:1"
       d="m 66.043187,92.253774 7.356001,-7.723801 7.601201,6.13 0.735598,8.949801 -8.7046,3.677996 -5.762199,-1.7164 z"
       id="path862" />
    <path
       style="fill:#fbfbfb;stroke:none;stroke-width:0.264583;stroke-linecap:butt;stroke-linejoin:miter;stroke-miterlimit:4;stroke-dasharray:none;stroke-opacity:1;fill-opacity:1"
       d="m 32.17652,92.253774 7.356001,-7.723801 7.601201,6.13 0.735598,8.949801 -8.7046,3.677996 -5.762199,-1.7164 z"
       id="path864" />
    <path
       style="fill:#fbfbfb;stroke:none;stroke-width:0.264583;stroke-linecap:butt;stroke-linejoin:miter;stroke-miterlimit:4;stroke-dasharray:none;stroke-opacity:1;fill-opacity:1"
       d="m -1.6901466,92.253774 7.3560003,-7.723801 7.6012013,6.13 0.735598,8.949801 -8.7046003,3.677996 -5.76219834,-1.7164 z"
       id="path866" />
    <path
       style="fill:#ececec;fill-opacity:1;stroke:none;stroke-width:0.264583;stroke-linecap:butt;stroke-linejoin:miter;stroke-miterlimit:4;stroke-dasharray:none;stroke-opacity:1"
       d="m 56.995886,43.312587 -2.301988,10.414831 -6.457711,1.987046 -6.930546,-6.220013 6.186808,-8.032384 5.819528,-1.510648 z"
       id="path868"
       sodipodi:nodetypes="ccccccc" />
    <path
       style="fill:#f6f6f6;stroke:none;stroke-width:0.264583;stroke-linecap:butt;stroke-linejoin:miter;stroke-miterlimit:4;stroke-dasharray:none;stroke-opacity:1;fill-opacity:1"
       d="m 48.901967,57.300425 6.505554,-2.195899 9.254847,3.90939 0.688351,8.477331 -15.836962,-1.67642 z"
       id="path888"
       sodipodi:nodetypes="cccccc" />
    <path
       style="fill:#f5f5f5;stroke:none;stroke-width:0.264583;stroke-linecap:butt;stroke-linejoin:miter;stroke-miterlimit:4;stroke-dasharray:none;stroke-opacity:1;fill-opacity:1"
       d="m 56.227165,53.784368 1.971111,-10.189652 8.485809,-0.868627 5.512432,6.982418 -7.082641,7.750815 z"
       id="path906" />
    <path
       style="fill:#f5f5f5;stroke:none;stroke-width:0.264583;stroke-linecap:butt;stroke-linejoin:miter;stroke-miterlimit:4;stroke-dasharray:none;stroke-opacity:1;fill-opacity:1"
       d="m 90.093832,53.784368 1.971111,-10.189652 8.485807,-0.868627 5.51244,6.982418 -7.082643,7.750815 z"
       id="path908" />
    <path
       style="fill:#f5f5f5;stroke:none;stroke-width:0.264583;stroke-linecap:butt;stroke-linejoin:miter;stroke-miterlimit:4;stroke-dasharray:none;stroke-opacity:1;fill-opacity:1"
       d="m 90.093832,87.651035 1.971111,-10.189652 8.485807,-0.868627 5.51244,6.982418 -7.082643,7.750815 z"
       id="path910" />
    <path
       style="fill:#f5f5f5;stroke:none;stroke-width:0.264583;stroke-linecap:butt;stroke-linejoin:miter;stroke-miterlimit:4;stroke-dasharray:none;stroke-opacity:1;fill-opacity:1"
       d="m 56.227165,87.651035 1.971111,-10.189652 8.485804,-0.868627 5.51244,6.982418 -7.08264,7.750815 z"
       id="path912" />
    <path
       style="fill:#f5f5f5;stroke:none;stroke-width:0.264583;stroke-linecap:butt;stroke-linejoin:miter;stroke-miterlimit:4;stroke-dasharray:none;stroke-opacity:1;fill-opacity:1"
       d="m 22.360498,87.651035 1.971111,-10.189652 8.485804,-0.868627 5.51244,6.982418 -7.08264,7.750815 z"
       id="path914" />
    <path
       style="fill:#ffffff;stroke:none;stroke-width:0.264583;stroke-linecap:butt;stroke-linejoin:miter;stroke-miterlimit:4;stroke-dasharray:none;stroke-opacity:1;fill-opacity:1"
       d="m 22.360498,53.784368 1.971111,-10.189652 8.485804,-0.868627 5.51244,6.982418 -7.08264,7.750815 z"
       id="path916" />
    <path
       style="fill:#f5f5f5;stroke:none;stroke-width:0.264583;stroke-linecap:butt;stroke-linejoin:miter;stroke-miterlimit:4;stroke-dasharray:none;stroke-opacity:1;fill-opacity:1"
       d="m 22.360498,19.917701 1.971111,-10.1896522 8.485804,-0.868627 5.51244,6.9824182 -7.08264,7.750815 z"
       id="path918" />
    <path
       style="fill:#f5f5f5;stroke:none;stroke-width:0.264583;stroke-linecap:butt;stroke-linejoin:miter;stroke-miterlimit:4;stroke-dasharray:none;stroke-opacity:1;fill-opacity:1"
       d="M 56.227165,19.917701 58.198276,9.7280488 66.68408,8.8594218 72.19652,15.84184 65.11388,23.592655 Z"
       id="path920" />
    <path
       style="fill:#f5f5f5;stroke:none;stroke-width:0.264583;stroke-linecap:butt;stroke-linejoin:miter;stroke-miterlimit:4;stroke-dasharray:none;stroke-opacity:1;fill-opacity:1"
       d="m 90.093832,19.917701 1.971111,-10.1896522 8.485807,-0.868627 5.51244,6.9824182 -7.082643,7.750815 z"
       id="path922" />
    <path
       style="fill:#f7f7f7;stroke:none;stroke-width:0.264583px;stroke-linecap:butt;stroke-linejoin:miter;stroke-opacity:1;fill-opacity:1"
       d="m 39.876489,82.446056 -5.764138,-6.567337 4.91369,-5.24442 6.85082,4.015999 z"
       id="path924" />
    <path
       style="fill:#f7f7f7;stroke:none;stroke-width:0.264583px;stroke-linecap:butt;stroke-linejoin:miter;stroke-opacity:1;fill-opacity:1"
       d="m 73.743156,82.446053 -5.764138,-6.567334 4.91369,-5.24442 6.85082,4.015999 z"
       id="path926" />
    <path
       style="fill:#f7f7f7;stroke:none;stroke-width:0.264583px;stroke-linecap:butt;stroke-linejoin:miter;stroke-opacity:1;fill-opacity:1"
       d="M 6.0098217,82.446053 0.24568436,75.878719 5.1593737,70.634299 12.010194,74.650298 Z"
       id="path928" />
    <path
       style="fill:#f7f7f7;stroke:none;stroke-width:0.264583px;stroke-linecap:butt;stroke-linejoin:miter;stroke-opacity:1;fill-opacity:1"
       d="M 6.0098217,48.579386 0.24568436,42.012052 5.1593737,36.767632 12.010194,40.783631 Z"
       id="path930" />
    <path
       style="fill:#f7f7f7;stroke:none;stroke-width:0.264583px;stroke-linecap:butt;stroke-linejoin:miter;stroke-opacity:1;fill-opacity:1"
       d="M 6.0098217,14.712719 0.24568436,8.1453848 5.1593737,2.9009645 12.010194,6.9169638 Z"
       id="path932" />
    <path
       style="fill:#f7f7f7;stroke:none;stroke-width:0.264583px;stroke-linecap:butt;stroke-linejoin:miter;stroke-opacity:1;fill-opacity:1"
       d="m 39.876489,14.712719 -5.764138,-6.5673342 4.91369,-5.2444203 6.85082,4.0159993 z"
       id="path934" />
    <path
       style="fill:#f7f7f7;stroke:none;stroke-width:0.264583px;stroke-linecap:butt;stroke-linejoin:miter;stroke-opacity:1;fill-opacity:1"
       d="m 73.743156,14.712719 -5.764138,-6.5673342 4.91369,-5.2444203 6.85082,4.0159993 z"
       id="path936" />
    <path
       style="fill:#f7f7f7;stroke:none;stroke-width:0.264583px;stroke-linecap:butt;stroke-linejoin:miter;stroke-opacity:1;fill-opacity:1"
       d="m 73.743156,48.579386 -5.764138,-6.567334 4.91369,-5.24442 6.85082,4.015999 z"
       id="path938" />
    <path
       style="fill:#ffffff;stroke:none;stroke-width:0.264583px;stroke-linecap:butt;stroke-linejoin:miter;stroke-opacity:1;fill-opacity:1"
       d="m 39.876489,48.579386 -5.764138,-6.567334 4.91369,-5.24442 6.85082,4.015999 z"
       id="path940" />
    <path
       style="fill:#ffffff;stroke:none;stroke-width:0.264583px;stroke-linecap:butt;stroke-linejoin:miter;stroke-opacity:1;fill-opacity:1"
       d="m 41.955357,70.067337 6.850819,-3.118305 3.685268,5.669642 -5.291667,1.228424 z"
       id="path942" />
    <path
       style="fill:#f8f8f8;stroke:none;stroke-width:0.264583px;stroke-linecap:butt;stroke-linejoin:miter;stroke-opacity:1;fill-opacity:1"
       d="m 50.748139,67.448523 3.140416,5.211754 3.842001,3.674957 8.819893,-0.968854 4.543582,-4.81085 -4.81085,-1.77066 z"
       id="path948" />
    <path
       style="fill:#f8f8f8;stroke:none;stroke-width:0.264583px;stroke-linecap:butt;stroke-linejoin:miter;stroke-opacity:1;fill-opacity:1"
       d="m 84.614806,67.448523 3.140416,5.211754 3.842001,3.674957 8.819897,-0.968854 4.54358,-4.81085 -4.81085,-1.77066 z"
       id="path950" />
    <path
       style="fill:#f8f8f8;stroke:none;stroke-width:0.264583px;stroke-linecap:butt;stroke-linejoin:miter;stroke-opacity:1;fill-opacity:1"
       d="m 84.614806,33.581856 3.140416,5.211754 3.842001,3.674957 8.819897,-0.968854 4.54358,-4.81085 -4.81085,-1.77066 z"
       id="path952" />
    <path
       style="fill:#f8f8f8;stroke:none;stroke-width:0.264583px;stroke-linecap:butt;stroke-linejoin:miter;stroke-opacity:1;fill-opacity:1"
       d="m 50.748139,33.581856 3.140416,5.211754 3.842001,3.674957 8.819894,-0.968854 4.54358,-4.81085 -4.81085,-1.77066 z"
       id="path954" />
    <path
       style="fill:#f8f8f8;stroke:none;stroke-width:0.264583px;stroke-linecap:butt;stroke-linejoin:miter;stroke-opacity:1;fill-opacity:1"
       d="m 16.881472,33.581856 3.140416,5.211754 3.842001,3.674957 8.819894,-0.968854 4.54358,-4.81085 -4.81085,-1.77066 z"
       id="path956" />
    <path
       style="fill:#f8f8f8;stroke:none;stroke-width:0.264583px;stroke-linecap:butt;stroke-linejoin:miter;stroke-opacity:1;fill-opacity:1"
       d="m 16.881472,67.448523 3.140416,5.211754 3.842001,3.674957 8.819894,-0.968854 4.54358,-4.81085 -4.81085,-1.77066 z"
       id="path958" />
    <path
       style="fill:#f8f8f8;stroke:none;stroke-width:0.264583px;stroke-linecap:butt;stroke-linejoin:miter;stroke-opacity:1;fill-opacity:1"
       d="m 84.614806,-0.28481146 3.140416,5.21175396 3.842001,3.6749573 8.819897,-0.968854 4.54358,-4.8108503 -4.81085,-1.77066 z"
       id="path960" />
    <path
       style="fill:#f8f8f8;stroke:none;stroke-width:0.264583px;stroke-linecap:butt;stroke-linejoin:miter;stroke-opacity:1;fill-opacity:1"
       d="m 50.748139,-0.28481146 3.140416,5.21175396 3.842001,3.6749573 8.819894,-0.968854 4.54358,-4.8108503 -4.81085,-1.77066 z"
       id="path962" />
    <path
       style="fill:#f8f8f8;stroke:none;stroke-width:0.264583px;stroke-linecap:butt;stroke-linejoin:miter;stroke-opacity:1;fill-opacity:1"
       d="m 16.881472,-0.28481146 3.140416,5.21175396 3.842001,3.6749573 8.819894,-0.968854 4.54358,-4.8108503 -4.81085,-1.77066 z"
       id="path964" />
    <path
       style="fill:#ffffff;stroke:none;stroke-width:0.264583px;stroke-linecap:butt;stroke-linejoin:miter;stroke-opacity:1;fill-opacity:1"
       d="m 75.822024,70.067337 6.850819,-3.118305 3.685268,5.669642 -5.291667,1.228424 z"
       id="path966" />
    <path
       style="fill:#ffffff;stroke:none;stroke-width:0.264583px;stroke-linecap:butt;stroke-linejoin:miter;stroke-opacity:1;fill-opacity:1"
       d="m 75.822024,36.20067 6.850819,-3.118305 3.685268,5.669642 -5.291667,1.228424 z"
       id="path968" />
    <path
       style="fill:#ffffff;stroke:none;stroke-width:0.264583px;stroke-linecap:butt;stroke-linejoin:miter;stroke-opacity:1;fill-opacity:1"
       d="m 75.822024,2.3340025 6.850819,-3.11830496 3.685268,5.66964196 -5.291667,1.2284243 z"
       id="path970" />
    <path
       style="fill:#ffffff;stroke:none;stroke-width:0.264583px;stroke-linecap:butt;stroke-linejoin:miter;stroke-opacity:1;fill-opacity:1"
       d="m 41.955357,2.3340025 6.850819,-3.11830496 3.685268,5.66964196 -5.291667,1.2284243 z"
       id="path972" />
    <path
       style="fill:#ffffff;stroke:none;stroke-width:0.264583px;stroke-linecap:butt;stroke-linejoin:miter;stroke-opacity:1;fill-opacity:1"
       d="M 8.0886897,2.3340025 14.939509,-0.78430246 18.624777,4.8853395 13.33311,6.1137638 Z"
       id="path974" />
    <path
       style="fill:#ffffff;stroke:none;stroke-width:0.264583px;stroke-linecap:butt;stroke-linejoin:miter;stroke-opacity:1;fill-opacity:1"
       d="m 8.0886897,36.20067 6.8508193,-3.118305 3.685268,5.669642 -5.291667,1.228424 z"
       id="path976" />
    <path
       style="fill:#ffffff;stroke:none;stroke-width:0.264583px;stroke-linecap:butt;stroke-linejoin:miter;stroke-opacity:1;fill-opacity:1"
       d="m 41.955357,36.20067 6.850819,-3.118305 3.685268,5.669642 -5.291667,1.228424 z"
       id="path978" />
    <path
       style="fill:#ffffff;stroke:none;stroke-width:0.264583px;stroke-linecap:butt;stroke-linejoin:miter;stroke-opacity:1;fill-opacity:1"
       d="m 8.0886897,70.067337 6.8508193,-3.118305 3.685268,5.669642 -5.291667,1.228424 z"
       id="path980" />
    <path
       style="fill:#f6f6f6;stroke:none;stroke-width:0.264583;stroke-linecap:butt;stroke-linejoin:miter;stroke-miterlimit:4;stroke-dasharray:none;stroke-opacity:1;fill-opacity:1"
       d="m 82.768634,57.300425 6.505554,-2.195899 9.254849,3.90939 0.68835,8.477331 -15.836963,-1.67642 z"
       id="path982"
       sodipodi:nodetypes="cccccc" />
    <path
       style="fill:#f6f6f6;stroke:none;stroke-width:0.264583;stroke-linecap:butt;stroke-linejoin:miter;stroke-miterlimit:4;stroke-dasharray:none;stroke-opacity:1;fill-opacity:1"
       d="m 82.768634,91.167092 6.505554,-2.195899 9.254849,3.90939 0.68835,8.477327 -15.836963,-1.676416 z"
       id="path984"
       sodipodi:nodetypes="cccccc" />
    <path
       style="fill:#f6f6f6;stroke:none;stroke-width:0.264583;stroke-linecap:butt;stroke-linejoin:miter;stroke-miterlimit:4;stroke-dasharray:none;stroke-opacity:1;fill-opacity:1"
       d="m 48.901967,91.167092 6.505554,-2.195899 9.254849,3.90939 0.68835,8.477327 -15.836963,-1.676416 z"
       id="path986"
       sodipodi:nodetypes="cccccc" />
    <path
       style="fill:#f6f6f6;stroke:none;stroke-width:0.264583;stroke-linecap:butt;stroke-linejoin:miter;stroke-miterlimit:4;stroke-dasharray:none;stroke-opacity:1;fill-opacity:1"
       d="m 15.0353,91.167092 6.505554,-2.195899 9.254849,3.90939 0.68835,8.477327 -15.836963,-1.676416 z"
       id="path988"
       sodipodi:nodetypes="cccccc" />
    <path
       style="fill:#f6f6f6;stroke:none;stroke-width:0.264583;stroke-linecap:butt;stroke-linejoin:miter;stroke-miterlimit:4;stroke-dasharray:none;stroke-opacity:1;fill-opacity:1"
       d="m 15.0353,57.300425 6.505554,-2.195899 9.254849,3.90939 0.68835,8.477331 -15.836963,-1.67642 z"
       id="path990"
       sodipodi:nodetypes="cccccc" />
    <path
       style="fill:#f6f6f6;stroke:none;stroke-width:0.264583;stroke-linecap:butt;stroke-linejoin:miter;stroke-miterlimit:4;stroke-dasharray:none;stroke-opacity:1;fill-opacity:1"
       d="m 15.0353,23.433758 6.505554,-2.195899 9.254849,3.90939 0.68835,8.477331 -15.836963,-1.67642 z"
       id="path992"
       sodipodi:nodetypes="cccccc" />
    <path
       style="fill:#f6f6f6;stroke:none;stroke-width:0.264583;stroke-linecap:butt;stroke-linejoin:miter;stroke-miterlimit:4;stroke-dasharray:none;stroke-opacity:1;fill-opacity:1"
       d="m 48.901967,23.433758 6.505554,-2.195899 9.254849,3.90939 0.68835,8.477331 -15.836963,-1.67642 z"
       id="path994"
       sodipodi:nodetypes="cccccc" />
    <path
       style="fill:#f6f6f6;stroke:none;stroke-width:0.264583;stroke-linecap:butt;stroke-linejoin:miter;stroke-miterlimit:4;stroke-dasharray:none;stroke-opacity:1;fill-opacity:1"
       d="m 82.768634,23.433758 6.505554,-2.195899 9.254849,3.90939 0.68835,8.477331 -15.836963,-1.67642 z"
       id="path996"
       sodipodi:nodetypes="cccccc" />
    <path
       style="fill:#ececec;fill-opacity:1;stroke:none;stroke-width:0.264583;stroke-linecap:butt;stroke-linejoin:miter;stroke-miterlimit:4;stroke-dasharray:none;stroke-opacity:1"
       d="m 90.862553,43.312587 -2.301988,10.414831 -6.457711,1.987046 -6.930546,-6.220013 6.186808,-8.032384 5.819528,-1.510648 z"
       id="path1000"
       sodipodi:nodetypes="ccccccc" />
    <path
       style="fill:#ececec;fill-opacity:1;stroke:none;stroke-width:0.264583;stroke-linecap:butt;stroke-linejoin:miter;stroke-miterlimit:4;stroke-dasharray:none;stroke-opacity:1"
       d="m 90.862553,9.4459203 -2.301988,10.4148307 -6.457711,1.987046 -6.930546,-6.220013 6.186808,-8.0323837 5.819528,-1.510648 z"
       id="path1002"
       sodipodi:nodetypes="ccccccc" />
    <path
       style="fill:#ececec;fill-opacity:1;stroke:none;stroke-width:0.264583;stroke-linecap:butt;stroke-linejoin:miter;stroke-miterlimit:4;stroke-dasharray:none;stroke-opacity:1"
       d="m 56.995886,9.4459203 -2.301988,10.4148307 -6.457711,1.987046 -6.930546,-6.220013 6.186808,-8.0323837 5.819528,-1.510648 z"
       id="path1004"
       sodipodi:nodetypes="ccccccc" />
    <path
       style="fill:#ececec;fill-opacity:1;stroke:none;stroke-width:0.264583;stroke-linecap:butt;stroke-linejoin:miter;stroke-miterlimit:4;stroke-dasharray:none;stroke-opacity:1"
       d="M 23.129219,9.4459203 20.827231,19.860751 14.36952,21.847797 7.4389743,15.627784 13.625782,7.5954003 19.44531,6.0847523 Z"
       id="path1006"
       sodipodi:nodetypes="ccccccc" />
    <path
       style="fill:#ececec;fill-opacity:1;stroke:none;stroke-width:0.264583;stroke-linecap:butt;stroke-linejoin:miter;stroke-miterlimit:4;stroke-dasharray:none;stroke-opacity:1"
       d="M 23.129219,43.312587 20.827231,53.727418 14.36952,55.714464 7.4389743,49.494451 13.625782,41.462067 19.44531,39.951419 Z"
       id="path1008"
       sodipodi:nodetypes="ccccccc" />
    <path
       style="fill:#ececec;fill-opacity:1;stroke:none;stroke-width:0.264583;stroke-linecap:butt;stroke-linejoin:miter;stroke-miterlimit:4;stroke-dasharray:none;stroke-opacity:1"
       d="M 23.129219,77.179254 20.827231,87.594085 14.36952,89.581131 7.4389743,83.361118 13.625782,75.328734 19.44531,73.818086 Z"
       id="path1010"
       sodipodi:nodetypes="ccccccc" />
    <path
       style="fill:#ececec;fill-opacity:1;stroke:none;stroke-width:0.264583;stroke-linecap:butt;stroke-linejoin:miter;stroke-miterlimit:4;stroke-dasharray:none;stroke-opacity:1"
       d="m 56.995886,77.179254 -2.301988,10.414831 -6.457711,1.987046 -6.930546,-6.220013 6.186808,-8.032384 5.819528,-1.510648 z"
       id="path1012"
       sodipodi:nodetypes="ccccccc" />
    <path
       style="fill:#ececec;fill-opacity:1;stroke:none;stroke-width:0.264583;stroke-linecap:butt;stroke-linejoin:miter;stroke-miterlimit:4;stroke-dasharray:none;stroke-opacity:1"
       d="m 90.862553,77.179254 -2.30199,10.414831 -6.45771,1.987046 -6.93055,-6.220013 6.18681,-8.032384 5.81953,-1.510648 z"
       id="path1014"
       sodipodi:nodetypes="ccccccc" />
  </g>
</svg>
